<?xml version="1.0" encoding="UTF-8" standalone="no"?><!DOCTYPE svg PUBLIC "-//W3C//DTD SVG 1.1//EN" "http://www.w3.org/Graphics/SVG/1.1/DTD/svg11.dtd"><svg width="100%" height="100%" viewBox="0 0 251 286" version="1.1" xmlns="http://www.w3.org/2000/svg" xmlns:xlink="http://www.w3.org/1999/xlink" xml:space="preserve" xmlns:serif="http://www.serif.com/" style="fill-rule:evenodd;clip-rule:evenodd;stroke-linejoin:round;stroke-miterlimit:2;"><path d="M220.729,0l-191.441,0c-16.144,0 -29.288,13.144 -29.288,29.43l-0,193.156c-0,16.287 13.144,29.43 29.288,29.43l162.01,0l-7.572,-26.43l18.287,17.001l17.287,16.001l30.716,27.145l0,-256.303c0,-16.286 -13.143,-29.43 -29.287,-29.43Zm-55.147,186.584c0,-0 -5.143,-6.144 -9.429,-11.573c18.716,-5.286 25.859,-17.001 25.859,-17.001c-5.858,3.858 -11.429,6.572 -16.43,8.429c-7.143,3.001 -14.001,5.001 -20.715,6.144c-13.716,2.571 -26.288,1.857 -37.003,-0.143c-8.143,-1.572 -15.144,-3.858 -21.001,-6.143c-3.286,-1.286 -6.858,-2.858 -10.429,-4.858c-0.429,-0.286 -0.858,-0.428 -1.286,-0.714c-0.286,-0.143 -0.429,-0.286 -0.572,-0.429c-2.571,-1.428 -4,-2.429 -4,-2.429c0,0 6.858,11.43 25.002,16.859c-4.286,5.429 -9.572,11.858 -9.572,11.858c-31.574,-1 -43.575,-21.716 -43.575,-21.716c0,-46.003 20.573,-83.291 20.573,-83.291c20.573,-15.43 40.146,-15.001 40.146,-15.001l1.428,1.714c-25.716,7.429 -37.574,18.716 -37.574,18.716c0,-0 3.143,-1.715 8.429,-4.143c15.287,-6.715 27.431,-8.572 32.431,-9.001c0.857,-0.143 1.572,-0.286 2.429,-0.286c8.715,-1.143 18.573,-1.428 28.859,-0.286c13.572,1.572 28.145,5.572 43.003,13.716c-0,-0 -11.287,-10.715 -35.574,-18.144l2,-2.286c0,-0 19.573,-0.429 40.146,15.001c-0,-0 20.572,37.288 20.572,83.291c0,-0 -12.143,20.716 -43.717,21.716Zm-66.433,-66.719c-8.143,-0 -14.572,7.143 -14.572,15.858c-0,8.715 6.572,15.858 14.572,15.858c8.144,0 14.573,-7.143 14.573,-15.858c0.143,-8.715 -6.429,-15.858 -14.573,-15.858m52.147,-0c-8.144,-0 -14.573,7.143 -14.573,15.858c0,8.715 6.572,15.858 14.573,15.858c8.143,0 14.572,-7.143 14.572,-15.858c-0,-8.715 -6.429,-15.858 -14.572,-15.858" style="fill:#e8ddcb;fill-rule:nonzero;"/></svg>