<?xml version="1.0" encoding="UTF-8" standalone="no"?><!DOCTYPE svg PUBLIC "-//W3C//DTD SVG 1.1//EN" "http://www.w3.org/Graphics/SVG/1.1/DTD/svg11.dtd"><svg width="100%" height="100%" viewBox="0 0 264 257" version="1.1" xmlns="http://www.w3.org/2000/svg" xmlns:xlink="http://www.w3.org/1999/xlink" xml:space="preserve" xmlns:serif="http://www.serif.com/" style="fill-rule:evenodd;clip-rule:evenodd;stroke-linejoin:round;stroke-miterlimit:2;"><path d="M131.567,-0c-72.658,-0 -131.567,58.909 -131.567,131.583c0,58.134 37.698,107.447 89.984,124.854c6.583,1.204 8.982,-2.859 8.982,-6.349c-0,-3.117 -0.113,-11.397 -0.178,-22.374c-36.599,7.948 -44.321,-17.642 -44.321,-17.642c-5.986,-15.193 -14.612,-19.24 -14.612,-19.24c-11.947,-8.167 0.904,-8.005 0.904,-8.005c13.207,0.937 20.154,13.562 20.154,13.562c11.736,20.105 30.799,14.297 38.295,10.937c1.196,-8.506 4.588,-14.305 8.352,-17.593c-29.216,-3.32 -59.935,-14.612 -59.935,-65.032c0,-14.362 5.129,-26.107 13.546,-35.307c-1.357,-3.328 -5.872,-16.704 1.284,-34.822c0,-0 11.051,-3.538 36.188,13.489c10.493,-2.916 21.753,-4.378 32.94,-4.426c11.171,0.048 22.431,1.51 32.94,4.426c25.121,-17.027 36.147,-13.489 36.147,-13.489c7.181,18.118 2.666,31.494 1.309,34.822c8.433,9.2 13.53,20.945 13.53,35.307c-0,50.549 -30.768,61.672 -60.081,64.927c4.725,4.063 8.934,12.092 8.934,24.37c-0,17.585 -0.162,31.777 -0.162,36.09c0,3.522 2.367,7.618 9.047,6.333c52.245,-17.439 89.911,-66.72 89.911,-124.838c-0,-72.674 -58.918,-131.583 -131.591,-131.583" style="fill:#e8ddcb;"/></svg>